<svg height="512pt" viewBox="0 -36 512 511" width="512pt" xmlns="http://www.w3.org/2000/svg"><path d="m493.304688.5h-474.609376c-10.308593 0-18.695312 8.386719-18.695312 18.695312v401.726563c0 10.308594 8.386719 18.695313 18.695312 18.695313h474.609376c10.308593 0 18.695312-8.386719 18.695312-18.695313v-401.726563c0-10.308593-8.386719-18.695312-18.695312-18.695312zm-11.304688 30v22.402344l-175.375.425781c-4.6875.011719-9.152344 1.777344-12.585938 4.976563l-24.667968 23.027343h-239.371094v-50.832031zm-452 379.117188v-298.289063h243.902344c4.699218 0 9.179687-1.765625 12.625-4.976563l24.683594-23.035156 170.792968-.417968v326.71875zm0 0"/><path d="m97.183594 59.207031c.101562.476563.222656.957031.359375 1.429688.140625.460937.3125.929687.5 1.378906.179687.449219.390625.898437.621093 1.332031.230469.429688.492188.847656.761719 1.257813.269531.410156.558594.8125.867188 1.179687.3125.382813.652343.75.992187 1.101563.347656.351562.71875.679687 1.097656.988281.371094.3125.773438.601562 1.179688.871094.410156.269531.832031.53125 1.261719.761718.429687.226563.878906.4375 1.328125.617188.453125.191406.921875.359375 1.382812.5.46875.140625.949219.261719 1.429688.359375.480468.101563.96875.171875 1.449218.222656.488282.046875.988282.070313 1.480469.070313.488281 0 .980469-.023438 1.46875-.070313.492188-.050781.980469-.121093 1.460938-.222656.480469-.097656.960937-.21875 1.417969-.359375.472656-.140625.929687-.308594 1.390624-.5.449219-.179688.890626-.390625 1.320313-.617188.429687-.230468.859375-.492187 1.261719-.761718.410156-.269532.808594-.558594 1.1875-.871094.382812-.308594.75-.640625 1.089844-.988281.351562-.351563.679687-.71875.992187-1.101563.308594-.367187.609375-.769531.878906-1.179687.269531-.410157.519531-.828125.75-1.257813.230469-.433594.441407-.882812.628907-1.332031.179687-.449219.351562-.917969.492187-1.378906.148437-.472657.269531-.949219.359375-1.429688.097656-.480469.167969-.972656.21875-1.453125.050781-.488281.082031-.988281.082031-1.476562 0-.492188-.03125-.980469-.082031-1.472656-.050781-.488282-.121094-.976563-.21875-1.457032-.089844-.480468-.210938-.960937-.359375-1.421875-.140625-.46875-.3125-.929687-.492187-1.378906-.1875-.460937-.398438-.898437-.628907-1.332031-.230469-.429688-.480469-.859375-.75-1.257813-.269531-.410156-.570312-.8125-.878906-1.191406-.3125-.378906-.640625-.75-.992187-1.089844-.339844-.351562-.707032-.679687-1.089844-.988281-.378906-.3125-.777344-.609375-1.1875-.878906-.402344-.273438-.832032-.523438-1.261719-.75-.429687-.230469-.871094-.441406-1.320313-.632813-.460937-.179687-.917968-.351562-1.390624-.488281-.457032-.148438-.9375-.269531-1.417969-.359375-.480469-.101563-.96875-.171875-1.460938-.222656-.980469-.097657-1.96875-.097657-2.949219 0-.480468.050781-.96875.121093-1.449218.222656-.480469.089844-.960938.210937-1.429688.359375-.460937.140625-.929687.308594-1.382812.488281-.449219.191407-.898438.398438-1.328125.632813-.429688.226562-.851563.476562-1.261719.75-.40625.269531-.808594.566406-1.179688.878906-.378906.308594-.75.640625-1.097656.988281-.339844.339844-.679687.710938-.992187 1.089844-.308594.382813-.597657.78125-.867188 1.191406-.269531.398438-.53125.828125-.761719 1.257813-.230468.433594-.441406.871094-.621093 1.332031-.1875.449219-.359375.910156-.5 1.378906-.136719.460938-.257813.941407-.359375 1.421875-.089844.476563-.167969.96875-.21875 1.457032-.050782.492187-.070313.980468-.070313 1.472656 0 .488281.019531.988281.070313 1.476562.050781.484375.128906.972656.21875 1.453125zm0 0"/><path d="m54.386719 67.875c.371093.3125.769531.601562 1.179687.871094.410156.269531.828125.527344 1.261719.757812.429687.230469.878906.441406 1.328125.621094.449219.191406.921875.359375 1.378906.5.472656.140625.949219.261719 1.429688.359375.480468.101563.972656.171875 1.453125.21875.488281.050781.988281.070313 1.476562.070313.492188 0 .980469-.019532 1.472657-.070313.488281-.046875.980468-.117187 1.457031-.21875.480469-.101563.960937-.21875 1.421875-.359375.46875-.140625.929687-.308594 1.378906-.5.460938-.179688.902344-.390625 1.332031-.621094.429688-.226562.859375-.488281 1.257813-.757812.410156-.269532.8125-.5625 1.191406-.871094s.75-.640625 1.097656-.988281c2.792969-2.789063 4.390625-6.660157 4.390625-10.609375 0-.492188-.027343-.980469-.078125-1.472656-.039062-.488282-.121094-.976563-.222656-1.457032-.089844-.480468-.207031-.960937-.359375-1.421875-.140625-.46875-.300781-.929687-.488281-1.378906-.191406-.460937-.402344-.898437-.628906-1.332031-.230469-.429688-.480469-.859375-.75-1.257813-.273438-.410156-.570313-.8125-.871094-1.191406-.320313-.378906-.652344-.75-.992188-1.089844-.347656-.351562-.71875-.679687-1.097656-.988281-.378906-.3125-.78125-.609375-1.191406-.878906-.398438-.273438-.828125-.523438-1.257813-.75-.429687-.230469-.871093-.441406-1.332031-.632813-.449219-.179687-.910156-.351562-1.378906-.488281-.460938-.148438-.941406-.269531-1.421875-.359375-.476563-.101563-.96875-.171875-1.457031-.222656-.980469-.097657-1.972657-.097657-2.949219 0-.480469.050781-.972657.121093-1.453125.222656-.480469.089844-.957032.210937-1.429688.359375-.457031.140625-.929687.308594-1.378906.488281-.449219.191407-.898438.398438-1.328125.632813-.433594.226562-.851563.476562-1.261719.75-.410156.269531-.808594.566406-1.179687.878906-.378907.308594-.75.640625-1.101563.988281-2.789062 2.789063-4.386718 6.648438-4.386718 10.601563 0 3.949218 1.597656 7.820312 4.386718 10.609375.351563.347656.722656.679687 1.101563.988281zm0 0"/><path d="m151.382812 67.875c.371094.3125.769532.601562 1.179688.871094.410156.269531.828125.527344 1.257812.757812.433594.230469.882813.441406 1.332032.621094.449218.191406.917968.359375 1.378906.5.46875.140625.949219.261719 1.429688.359375.480468.101563.972656.171875 1.449218.21875.492188.050781.992188.070313 1.480469.070313.492187 0 .980469-.019532 1.472656-.070313.488281-.046875.976563-.117187 1.457031-.21875.480469-.101563.960938-.21875 1.421876-.359375.46875-.140625.929687-.308594 1.390624-.5.449219-.179688.886719-.390625 1.320313-.621094.429687-.226562.859375-.488281 1.257813-.757812.410156-.269532.808593-.5625 1.191406-.871094.378906-.308594.75-.640625 1.089844-.988281.347656-.351563.679687-.722657.988281-1.101563.3125-.371094.609375-.769531.878906-1.179687.273437-.410157.523437-.832031.75-1.261719.230469-.429688.441406-.878906.632813-1.328125.1875-.449219.347656-.921875.488281-1.382813.152343-.46875.269531-.949218.359375-1.429687.101562-.476563.179687-.96875.222656-1.449219.046875-.488281.078125-.988281.078125-1.476562 0-.492188-.03125-.980469-.078125-1.472656-.042969-.488282-.121094-.980469-.222656-1.460938-.089844-.476562-.207032-.960938-.359375-1.417969-.140625-.472656-.300781-.929687-.488281-1.382812-.191407-.457031-.402344-.898438-.632813-1.328125-.226563-.429688-.476563-.859375-.75-1.261719-.269531-.410156-.566406-.808594-.878906-1.1875-.308594-.378906-.640625-.75-.988281-1.089844-.339844-.351562-.710938-.679687-1.089844-.988281-.382813-.3125-.78125-.613281-1.191406-.882812-.398438-.269532-.828126-.519532-1.257813-.75-.433594-.230469-.871094-.4375-1.320313-.628907-.460937-.179687-.921874-.351562-1.390624-.488281-.460938-.152344-.941407-.273438-1.421876-.363281-.480468-.097657-.96875-.167969-1.457031-.21875-.980469-.101563-1.972656-.101563-2.953125 0-.476562.050781-.96875.121093-1.449218.21875-.480469.09375-.960938.210937-1.429688.363281-.460938.136719-.929688.308594-1.378906.488281-.449219.1875-.898438.398438-1.332032.628907-.429687.230468-.847656.480468-1.257812.75-.410156.269531-.808594.570312-1.179688.882812-.378906.308594-.75.636719-1.101562.988281-.339844.339844-.679688.710938-.988281 1.089844-.3125.378906-.601563.777344-.871094 1.1875-.269531.402344-.53125.832031-.757813 1.261719-.230468.429687-.441406.871094-.621093 1.328125-.191407.453125-.359375.910156-.5 1.382812-.140625.457031-.261719.9375-.359375 1.417969-.101563.480469-.171875.972656-.222656 1.460938-.046876.488281-.070313.980468-.070313 1.472656 0 3.949218 1.601563 7.816406 4.390625 10.605468.351562.351563.722656.683594 1.101562.992188zm0 0"/><path d="m225.753906 188.542969c-15.121094 15.117187-23.445312 35.222656-23.445312 56.605469 0 16.292968 4.847656 31.835937 13.835937 45.003906l-53.292969 53.257812c-5.859374 5.855469-5.863281 15.351563-.007812 21.210938 2.929688 2.929687 6.769531 4.394531 10.609375 4.394531 3.835937 0 7.675781-1.460937 10.601563-4.386719l53.3125-53.28125c13.527343 9.199219 29.253906 13.820313 44.996093 13.820313 20.496094 0 41.003907-7.808594 56.609375-23.410157 31.210938-31.214843 31.210938-82.003906 0-113.21875-31.214844-31.210937-82.003906-31.210937-113.21875.003907zm92.003906 92.003906c-19.515624 19.511719-51.265624 19.515625-70.785156.003906v-.003906c-.003906 0-.003906 0-.007812-.003906-9.453125-9.453125-14.660156-22.023438-14.660156-35.394531 0-13.367188 5.207031-25.9375 14.664062-35.394532 9.757812-9.757812 22.574219-14.636718 35.394531-14.636718 12.816407 0 25.636719 4.878906 35.394531 14.636718 19.519532 19.519532 19.519532 51.273438 0 70.792969zm0 0"/></svg>