<svg height="480pt" viewBox="0 0 480 480" width="480pt" xmlns="http://www.w3.org/2000/svg"><path d="m456 168v-24h16c4.417969 0 8-3.582031 8-8v-72c0-3.699219-2.535156-6.910156-6.128906-7.777344l-232-56c-1.316406-.316406-2.691406-.2968748-4 .0625l-232 64c-3.46875.960938-5.871094 4.113282-5.871094 7.714844v64c0 4.417969 3.582031 8 8 8h16v24c0 4.417969 3.582031 8 8 8v192c-4.417969 0-8 3.582031-8 8v24h-8c-4.417969 0-8 3.582031-8 8v24c-4.417969 0-8 3.582031-8 8v32c0 4.417969 3.582031 8 8 8h464c4.417969 0 8-3.582031 8-8v-32c0-4.417969-3.582031-8-8-8v-24c0-4.417969-3.582031-8-8-8h-8v-24c0-4.417969-3.582031-8-8-8v-192c4.417969 0 8-3.582031 8-8zm-16-8h-64v-16h64zm-72 208c-4.417969 0-8 3.582031-8 8v24h-240v-24c0-4.417969-3.582031-8-8-8v-192c4.417969 0 8-3.582031 8-8v-24h240v24c0 4.417969 3.582031 8 8 8zm-352-289.90625 224.136719-61.832031 223.863281 54.035156v57.703125h-448zm88 65.90625v16h-64v-16zm-56 32h48v192h-48zm-8 208h64v16h-64zm424 80h-448v-16h448zm-440-32v-16h432v16zm352-32v-16h64v16zm56-32h-48v-192h48zm0 0"/><path d="m240 112c22.089844 0 40-17.910156 40-40 0-22.09375-17.910156-40-40-40s-40 17.90625-40 40c.027344 22.078125 17.917969 39.972656 40 40zm0-64c13.253906 0 24 10.746094 24 24s-10.746094 24-24 24-24-10.746094-24-24 10.746094-24 24-24zm0 0"/><path d="m240 192c-44.183594 0-80 35.816406-80 80s35.816406 80 80 80 80-35.816406 80-80c-.046875-44.164062-35.835938-79.953125-80-80zm0 144c-35.347656 0-64-28.65625-64-64 0-35.347656 28.652344-64 64-64s64 28.652344 64 64c-.039062 35.328125-28.671875 63.960938-64 64zm0 0"/><path d="m256 233.472656v-9.472656h-16v8h-8v-8h-16v8c-4.417969 0-8 3.582031-8 8v64c0 4.417969 3.582031 8 8 8v8h16v-8h8v8h16v-9.472656c7.566406-2.617188 13.308594-8.867188 15.273438-16.632813 1.96875-7.761719-.105469-15.992187-5.511719-21.894531 5.40625-5.90625 7.480469-14.136719 5.511719-21.898438-1.964844-7.761718-7.707032-14.011718-15.273438-16.628906zm-32 14.527344h24c4.417969 0 8 3.582031 8 8s-3.582031 8-8 8h-24zm24 48h-24v-16h24c4.417969 0 8 3.582031 8 8s-3.582031 8-8 8zm0 0"/><path d="m240 168c-57.4375 0-104 46.5625-104 104s46.5625 104 104 104 104-46.5625 104-104c-.066406-57.410156-46.589844-103.933594-104-104zm0 192c-48.601562 0-88-39.398438-88-88s39.398438-88 88-88 88 39.398438 88 88c-.058594 48.578125-39.421875 87.941406-88 88zm0 0"/></svg>