<?xml version="1.0" encoding="iso-8859-1"?>
<!-- Generator: Adobe Illustrator 19.0.0, SVG Export Plug-In . SVG Version: 6.00 Build 0)  -->
<svg version="1.1" id="Capa_1" xmlns="http://www.w3.org/2000/svg" xmlns:xlink="http://www.w3.org/1999/xlink" x="0px" y="0px"
	 viewBox="0 0 480 480" style="enable-background:new 0 0 480 480;" xml:space="preserve">
<g>
	<path style="fill:#D45B5B;" d="M196.48,69.592c-0.088-0.032-0.176-0.048-0.256-0.08C196.312,69.536,196.4,69.552,196.48,69.592z"/>
	<path style="fill:#D45B5B;" d="M427.736,291.696c-1.168,0.632-2.296,1.352-3.36,2.168
		C425.44,293.048,426.576,292.344,427.736,291.696z"/>
</g>
<g>
	<polygon style="fill:#B3D5E4;" points="88,288 8,288 8,472 88,472 88,312 	"/>
	<path style="fill:#B3D5E4;" d="M269.456,288C284.12,288,296,299.88,296,314.544c0,12.512-8.744,23.328-20.984,25.952
		l-78.072,16.728C189.392,358.84,184,365.52,184,373.24c0,9.92,8.76,17.568,18.592,16.224l102.112-17.48
		c15.304-2.616,29.728-8.936,42.04-18.4l77.64-59.72c1.064-0.816,2.192-1.536,3.36-2.168c1.12-0.632,2.288-1.152,3.472-1.624
		c0.48-4.92,0.784-9.896,0.784-14.944c0-36.208-12.952-69.456-34.488-96H400l29.584-33.288c10.456-11.76-0.568-29.968-15.84-26.152
		l-33.84,8.464c-7.024,1.752-14.352-1.424-17.864-7.752l-24.968-44.944c-4.768-8.576-16.064-10.888-23.808-4.856l-47.44,36.896
		c-5.776,4.496-13.872,4.496-19.648,0l-46.04-35.808c-1.152-0.896-2.384-1.584-3.656-2.096c-0.088-0.032-0.176-0.048-0.256-0.08
		c-1.232-0.472-2.488-0.808-3.768-0.976l0,0c-6.744-0.904-13.744,2.496-16.76,9.288L152,131.128l-29.872-8.144
		c-15.832-4.32-27.128,15.144-15.52,26.752L136,179.128h2.488C116.952,205.68,104,238.92,104,275.128
		c0,10.976,1.2,21.672,3.44,32.008l52.072-13.016c16.264-4.064,32.968-6.12,49.728-6.12H269.456z M384,184h-16H384z M352,184h-16
		H352z M320,184h-16H320z M272,208c-8.84,0-16-7.16-16-16s7.16-16,16-16v-24v24c8.84,0,16,7.16,16,16c0-8.84-7.16-16-16-16
		s-16,7.16-16,16S263.16,208,272,208s16,7.16,16,16s-7.16,16-16,16v24v-24c-8.84,0-16-7.16-16-16c0,8.84,7.16,16,16,16
		s16-7.16,16-16S280.84,208,272,208z M240,184h-16H240z M160,184h16H160z M192,184h16H192z"/>
</g>
<path style="fill:#E4D9B3;" d="M443.712,288h-2.096c-3.6,0-7.112,0.76-10.408,2.072l0,0c-1.184,0.472-2.352,1.008-3.472,1.624
	c-1.16,0.656-2.296,1.352-3.36,2.168l-77.64,59.72c-12.304,9.464-26.736,15.784-42.04,18.4l-102.112,17.48
	C192.76,390.808,184,383.16,184,373.24c0-7.72,5.392-14.392,12.944-16.016l78.072-16.728c12.24-2.624,20.984-13.44,20.984-25.952
	C296,299.88,284.12,288,269.456,288H209.24c-16.76,0-33.464,2.056-49.728,6.12L88,312v160h198.36c11.384,0,22.4-4.048,31.08-11.424
	L463.712,336.28c5.304-5.304,8.288-12.496,8.288-20C472,300.664,459.336,288,443.712,288z"/>
<g>
	<path style="fill:#D45B5B;" d="M431.208,290.072L431.208,290.072c-1.192,0.472-2.352,0.992-3.472,1.624
		C428.864,291.08,430.024,290.544,431.208,290.072z"/>
	<path style="fill:#D45B5B;" d="M196.48,69.592c1.272,0.536,2.504,1.2,3.656,2.096l40.336,31.376C258.488,99.16,272,83.176,272,64
		c0-22.088-17.912-40-40-40s-40,17.912-40,40c0,1.552,0.288,3.024,0.456,4.528c1.28,0.168,2.536,0.48,3.768,0.976
		C196.312,69.536,196.4,69.552,196.48,69.592z"/>
	<path style="fill:#D45B5B;" d="M196.224,69.504c-1.232-0.496-2.488-0.808-3.768-0.976l0,0
		C193.736,68.696,194.992,69.032,196.224,69.504z"/>
	<path style="fill:#D45B5B;" d="M200.136,71.68c-1.152-0.896-2.392-1.56-3.656-2.096C197.752,70.104,198.984,70.784,200.136,71.68z"
		/>
	<circle style="fill:#D45B5B;" cx="392" cy="48" r="40"/>
</g>
<g>
	<path style="fill:#23374E;" d="M443.72,280h-2.104c-0.592,0-1.168,0.12-1.752,0.144c0.056-1.68,0.136-3.384,0.136-5.008
		c0-33.992-10.672-66.352-30.96-94.136l26.52-29.84c7.152-8.04,8.168-19.168,2.592-28.376s-15.928-13.496-26.344-10.84l-33.84,8.456
		c-3.504,0.896-7.184-0.72-8.936-3.872l-24.968-44.944c-3.408-6.136-9.304-10.456-16.168-11.856
		c-6.864-1.416-13.992,0.248-19.544,4.568l-41.168,32.016C275.104,87.656,280,76.288,280,64c0-26.472-21.528-48-48-48
		c-25.512,0-46.376,20.016-47.856,45.16c-7.048,1.872-12.792,6.72-15.76,13.4l-20.904,47.048l-23.24-6.344
		c-10.664-2.92-21.528,1.552-27.08,11.104c-5.536,9.552-4.016,21.216,3.792,29.024l25.84,25.84
		C106.616,208.96,96,241.232,96,275.136c0,8.72,0.744,17.456,2.176,26.08L96,301.76V288c0-4.424-3.576-8-8-8H8c-4.424,0-8,3.576-8,8
		v184c0,4.424,3.576,8,8,8h80h198.36c13.272,0,26.16-4.736,36.264-13.328l146.752-124.736c6.848-6.848,10.624-15.96,10.624-25.656
		C480,296.272,463.728,280,443.72,280z M232,32c17.648,0,32,14.352,32,32c0,13.744-8.968,25.952-21.768,30.28l-37.176-28.904
		c-0.008,0-0.008-0.008-0.008-0.008c-0.048-0.04-0.112-0.056-0.168-0.096c-1.512-1.152-3.128-2.104-4.824-2.856
		c-0.008,0-0.016-0.008-0.024-0.016C200.872,45.496,214.888,32,232,32z M113.736,297.32c-1.152-7.344-1.736-14.784-1.736-22.184
		c0-33.136,11.312-64.584,32.704-90.96c1.944-2.392,2.336-5.696,1.008-8.48c-1.192-2.52-3.616-4.216-6.352-4.512l-27.104-27.104
		c-4.04-4.04-1.984-8.432-1.256-9.672c0.72-1.248,3.496-5.208,9.024-3.704l29.872,8.152c3.792,1.016,7.816-0.856,9.416-4.472
		l23.696-53.32c1-2.264,2.952-3.904,5.36-4.504c1.048-0.264,2.112-0.224,3.152-0.064c0.368,0.056,0.688,0.168,1.032,0.264
		c0.936,0.272,1.856,0.616,2.648,1.232c0.008,0.008,0.024,0.016,0.04,0.024l17.944,13.952l28.088,21.84
		c8.672,6.752,20.8,6.752,29.472,0l47.432-36.888c1.88-1.472,4.176-1.992,6.52-1.528c2.32,0.48,4.232,1.88,5.392,3.952
		l24.968,44.944c5.248,9.472,16.304,14.272,26.8,11.632l33.848-8.464c5.272-1.328,8.056,2.44,8.776,3.616
		c0.72,1.184,2.776,5.368-0.856,9.464l-27.28,30.688c-2.608,0.392-4.888,2.048-6.04,4.48c-1.328,2.784-0.936,6.088,1.008,8.48
		C412.688,210.544,424,242,424,275.136c0,3.08-0.12,6.28-0.368,9.688c-1.48,0.824-2.856,1.728-4.136,2.704l-77.64,59.72
		c-11.224,8.64-24.536,14.472-38.504,16.856l-101.84,17.44c-2.448,0.344-4.792-0.376-6.64-1.992
		c-1.856-1.616-2.872-3.856-2.872-6.312c0-3.928,2.784-7.376,6.624-8.192l78.064-16.736C292.512,344.928,304,330.728,304,314.536
		c0-19.04-15.496-34.536-34.536-34.536h-60.216c-17.416,0-34.808,2.144-51.664,6.368L113.736,297.32z M16,296h64v16v152H16V296z
		 M458.536,330.184L312.264,454.488C305.04,460.616,295.84,464,286.36,464H96V318.248l65.464-16.368
		c15.592-3.904,31.672-5.88,47.776-5.88h60.216C279.68,296,288,304.32,288,314.536c0,8.688-6.168,16.312-14.664,18.136
		l-78.064,16.736C184.104,351.8,176,361.824,176,373.24c0,7.04,3.04,13.728,8.344,18.36c1.232,1.072,2.568,1.976,3.96,2.768
		c0.472,0.272,0.984,0.464,1.472,0.704c0.944,0.456,1.904,0.88,2.904,1.208c0.624,0.208,1.256,0.36,1.896,0.52
		c0.936,0.224,1.88,0.4,2.84,0.52c0.672,0.08,1.336,0.152,2.024,0.176c0.336,0.016,0.656,0.088,0.992,0.088
		c1.16,0,2.328-0.08,3.504-0.24l102.12-17.488c16.52-2.832,32.28-9.72,45.552-19.936l77.64-59.72c0.728-0.56,1.512-1.04,2.312-1.488
		c0.8-0.432,1.656-0.84,2.6-1.208c0.056-0.024,0.096-0.064,0.152-0.088c2.328-0.896,4.8-1.416,7.304-1.416h2.104
		c11.176,0,20.28,9.104,20.28,20.28C464,321.704,461.888,326.8,458.536,330.184z"/>
	<path style="fill:#23374E;" d="M392,96c26.472,0,48-21.528,48-48S418.472,0,392,0s-48,21.528-48,48S365.528,96,392,96z M392,16
		c17.648,0,32,14.352,32,32s-14.352,32-32,32s-32-14.352-32-32S374.352,16,392,16z"/>
	<path style="fill:#23374E;" d="M272,232c-4.416,0-8-3.584-8-8h-16c0,10.416,6.712,19.216,16,22.528V264h16v-17.472
		c9.288-3.312,16-12.112,16-22.528c0-13.232-10.768-24-24-24c-4.416,0-8-3.584-8-8s3.584-8,8-8s8,3.584,8,8h16
		c0-10.416-6.712-19.216-16-22.528V152h-16v17.472c-9.288,3.312-16,12.112-16,22.528c0,13.232,10.768,24,24,24c4.416,0,8,3.584,8,8
		S276.416,232,272,232z"/>
	<rect x="160" y="176" style="fill:#23374E;" width="16" height="16"/>
	<rect x="192" y="176" style="fill:#23374E;" width="16" height="16"/>
	<rect x="224" y="176" style="fill:#23374E;" width="16" height="16"/>
	<rect x="304" y="176" style="fill:#23374E;" width="16" height="16"/>
	<rect x="336" y="176" style="fill:#23374E;" width="16" height="16"/>
	<rect x="368" y="176" style="fill:#23374E;" width="16" height="16"/>
</g>
<g>
</g>
<g>
</g>
<g>
</g>
<g>
</g>
<g>
</g>
<g>
</g>
<g>
</g>
<g>
</g>
<g>
</g>
<g>
</g>
<g>
</g>
<g>
</g>
<g>
</g>
<g>
</g>
<g>
</g>
</svg>
