<?xml version="1.0" encoding="iso-8859-1"?>
<!-- Generator: Adobe Illustrator 19.0.0, SVG Export Plug-In . SVG Version: 6.00 Build 0)  -->
<svg version="1.1" id="Capa_1" xmlns="http://www.w3.org/2000/svg" xmlns:xlink="http://www.w3.org/1999/xlink" x="0px" y="0px"
	 viewBox="0 0 496 496" style="enable-background:new 0 0 496 496;" xml:space="preserve">
<circle style="fill:#FEA82F;" cx="120" cy="120" r="112"/>
<path style="fill:#FF8031;" d="M120,208C62.2,208,14.656,164.208,8.664,108C8.24,111.944,8,115.944,8,120
	c0,61.856,50.144,112,112,112s112-50.144,112-112c0-4.056-0.24-8.056-0.664-12C225.344,164.208,177.8,208,120,208z"/>
<g>
	<circle style="fill:#FFEAA7;" cx="440" cy="232" r="16"/>
	<circle style="fill:#FFEAA7;" cx="56" cy="264" r="16"/>
	<circle style="fill:#FFEAA7;" cx="264" cy="56" r="16"/>
	<circle style="fill:#FFEAA7;" cx="232" cy="440" r="16"/>
</g>
<circle style="fill:#48C397;" cx="376" cy="376" r="112"/>
<path style="fill:#0FA196;" d="M376,464c-57.8,0-105.344-43.792-111.336-100c-0.424,3.944-0.664,7.944-0.664,12
	c0,61.856,50.144,112,112,112s112-50.144,112-112c0-4.056-0.24-8.056-0.664-12C481.344,420.208,433.8,464,376,464z"/>
<path d="M376,328c13.232,0,24,10.768,24,24h16c0-22.056-17.944-40-40-40s-40,17.944-40,40h-8v16h8v16h-8v16h8
	c0,22.056,17.944,40,40,40s40-17.944,40-40h-16c0,13.232-10.768,24-24,24s-24-10.768-24-24h8v-16h-8v-16h8v-16h-8
	C352,338.768,362.768,328,376,328z"/>
<path d="M120,64c13.232,0,24,10.768,24,24h16c0-19.312-13.768-35.472-32-39.192V32h-16v16.808C93.768,52.528,80,68.688,80,88
	c0,22.056,17.944,40,40,40c13.232,0,24,10.768,24,24s-10.768,24-24,24s-24-10.768-24-24H80c0,19.312,13.768,35.472,32,39.192V208h16
	v-16.808c18.232-3.72,32-19.872,32-39.192c0-22.056-17.944-40-40-40c-13.232,0-24-10.768-24-24S106.768,64,120,64z"/>
<rect x="192" y="112" width="16" height="16"/>
<rect x="32" y="112" width="16" height="16"/>
<rect x="448" y="368" width="16" height="16"/>
<rect x="288" y="368" width="16" height="16"/>
<path d="M445.488,278.352c1.216-7.936,1.936-15.856,2.208-23.728C457.144,251.392,464,242.528,464,232
	c0-11.904-8.736-21.744-20.128-23.608c-6.856-34.12-22.168-65.08-43.872-90.448V72h-16v29.48
	c-26.432-24.536-59.512-41.944-96.392-49.352C285.744,40.736,275.904,32,264,32c-10.528,0-19.392,6.856-22.616,16.304
	c-7.872,0.272-15.792,0.992-23.728,2.208C195.872,19.992,160.264,0,120,0C53.832,0,0,53.832,0,120
	c0,40.264,19.992,75.872,50.512,97.648c-1.216,7.936-1.936,15.856-2.208,23.728C38.856,244.608,32,253.472,32,264
	c0,11.904,8.736,21.744,20.128,23.608c5.976,29.744,18.384,57.048,35.872,80.368V416h16v-29.28
	c27.608,28.656,63.704,48.976,104.392,57.152C210.256,455.264,220.096,464,232,464c10.528,0,19.392-6.856,22.616-16.304
	c7.872-0.272,15.792-0.992,23.728-2.208C300.128,476.008,335.736,496,376,496c29.168,0,57.28-10.584,79.168-29.824l-10.56-12.016
	C425.64,470.824,401.272,480,376,480c-57.344,0-104-46.656-104-104s46.656-104,104-104s104,46.656,104,104
	c0,23.992-8.36,47.4-23.536,65.904l12.376,10.144C486.352,430.688,496,403.68,496,376C496,335.736,476.008,300.128,445.488,278.352z
	 M448,232c0,4.416-3.584,8-8,8s-8-3.584-8-8s3.584-8,8-8S448,227.584,448,232z M264,48c4.416,0,8,3.584,8,8s-3.584,8-8,8
	s-8-3.584-8-8S259.584,48,264,48z M48,264c0-4.416,3.584-8,8-8s8,3.584,8,8s-3.584,8-8,8S48,268.416,48,264z M232,448
	c-4.416,0-8-3.584-8-8s3.584-8,8-8s8,3.584,8,8S236.416,448,232,448z M256,376c0,19.664,4.848,38.192,13.264,54.584
	c-4.968,0.584-9.904,0.944-14.832,1.12C251.04,422.568,242.312,416,232,416c-8.904,0-16.592,4.928-20.736,12.144
	c-37.136-7.528-70.112-26.04-95.392-52.144H144v-16h-41.92c-16.68-21.736-28.56-47.312-34.224-75.264
	C75.072,280.592,80,272.904,80,264c0-10.312-6.568-19.04-15.704-22.432c0.176-4.928,0.536-9.864,1.12-14.832
	C81.808,235.152,100.336,240,120,240c29.168,0,57.28-10.584,79.168-29.824l-10.56-12.016C169.64,214.824,145.272,224,120,224
	c-57.344,0-104-46.656-104-104S62.656,16,120,16s104,46.656,104,104c0,23.992-8.36,47.4-23.536,65.904l12.376,10.144
	C230.352,174.688,240,147.68,240,120c0-19.664-4.848-38.192-13.264-54.584c4.968-0.584,9.904-0.944,14.832-1.12
	C244.96,73.432,253.688,80,264,80c8.904,0,16.6-4.928,20.736-12.144c33.208,6.728,63.056,22.264,87.088,44.144H344v16h43.544
	c20.064,23.328,34.224,51.832,40.6,83.264C420.928,215.4,416,223.096,416,232c0,10.312,6.568,19.04,15.704,22.432
	c-0.176,4.928-0.536,9.864-1.12,14.832C414.192,260.848,395.664,256,376,256C309.832,256,256,309.832,256,376z"/>
<g>
</g>
<g>
</g>
<g>
</g>
<g>
</g>
<g>
</g>
<g>
</g>
<g>
</g>
<g>
</g>
<g>
</g>
<g>
</g>
<g>
</g>
<g>
</g>
<g>
</g>
<g>
</g>
<g>
</g>
</svg>
