<?xml version="1.0" encoding="iso-8859-1"?>
<!-- Generator: Adobe Illustrator 21.0.0, SVG Export Plug-In . SVG Version: 6.00 Build 0)  -->
<svg xmlns="http://www.w3.org/2000/svg" xmlns:xlink="http://www.w3.org/1999/xlink" version="1.1" id="Capa_1" x="0px" y="0px" viewBox="0 0 511.969 511.969" style="enable-background:new 0 0 511.969 511.969;" xml:space="preserve" width="512" height="512">
<g>
	<g>
		<path style="fill:#E4E3E1;" d="M453.769,10.194H28.063c-11.338,0-20.615,9.277-20.615,20.615v369.013    c0,11.338,9.277,20.615,20.615,20.615h425.705c11.338,0,20.615-9.277,20.615-20.615V30.81    C474.384,19.471,465.107,10.194,453.769,10.194z"/>
		<rect x="114.169" y="61.274" style="fill:#D1D0CF;" width="23.082" height="359.164"/>
		<path style="fill:#B4E1F9;" d="M7.448,399.823c0,11.339,9.277,20.615,20.615,20.615h88.215V64.825H7.448V399.823z"/>
		<path style="fill:#4B98D4;" d="M453.769,10.194H28.063c-11.338,0-20.615,9.277-20.615,20.615v34.015h466.936V30.81    C474.384,19.471,465.107,10.194,453.769,10.194z"/>
		<path style="fill:#ED5454;" d="M62.079,10.194H28.063c-11.338,0-20.615,9.277-20.615,20.615v34.015h54.63V10.194z"/>
		<path style="fill:#72BDF6;" d="M28.421,399.823V64.825H7.448v334.998c0,11.339,9.277,20.615,20.615,20.615h20.973    C37.698,420.438,28.421,411.161,28.421,399.823z"/>
		<path style="fill:#EA3F3F;" d="M49.036,10.194H28.064c-11.339,0-20.616,9.277-20.616,20.615v34.015h20.973V30.81    C28.421,19.471,37.698,10.194,49.036,10.194z"/>
		
			<ellipse transform="matrix(0.7071 -0.7071 0.7071 0.7071 -130.0742 316.7809)" style="fill:#525468;" cx="317.351" cy="315.404" rx="104.861" ry="104.861"/>
		<path style="fill:#ED5454;" d="M417.957,403.243l-12.767,12.766c-6.058,6.058-6.058,15.879,0,21.937l59.98,59.98    c6.057,6.057,15.878,6.057,21.936-0.001l12.766-12.766c6.058-6.058,6.058-15.879,0.001-21.936l-59.98-59.98    C433.835,397.185,424.014,397.185,417.957,403.243z"/>
		<path style="fill:#EA3F3F;" d="M425.19,437.946c-6.058-6.058-6.058-15.879,0-21.937l12.767-12.766    c0.311-0.311,0.638-0.596,0.968-0.875c-6.094-5.156-15.222-4.871-20.968,0.875l-12.767,12.766c-6.058,6.058-6.058,15.879,0,21.937    l59.98,59.98c5.746,5.746,14.873,6.031,20.968,0.875C485.198,498.005,489.527,502.283,425.19,437.946z"/>
		
			<ellipse transform="matrix(0.7071 -0.7071 0.7071 0.7071 -130.0745 316.7809)" style="fill:#72BDF6;" cx="317.351" cy="315.404" rx="73.562" ry="73.562"/>
		<path style="fill:#3E4151;" d="M263.203,389.552c-40.951-40.951-40.951-107.345,0-148.296    c17.929-17.929,40.735-28.008,64.148-30.238c-30.063-2.863-61.126,7.216-84.148,30.238c-40.951,40.951-40.951,107.345,0,148.296    c23.022,23.022,54.085,33.101,84.148,30.238C303.938,417.56,281.132,407.481,263.203,389.552z"/>
		<path style="fill:#4B98D4;" d="M285.335,367.421c-28.728-28.728-28.728-75.305,0-104.033    c11.814-11.814,26.648-18.758,42.016-20.856c-22.002-3.003-45.103,3.942-62.016,20.856c-28.728,28.728-28.728,75.305,0,104.033    c16.914,16.914,40.014,23.858,62.016,20.855C311.983,386.179,297.149,379.234,285.335,367.421z"/>
		<path style="fill:#EA3F3F;" d="M418.042,450.798l47.128,47.129c6.058,6.057,15.879,6.057,21.936-0.001l12.767-12.767    c6.058-6.058,6.058-15.879,0.001-21.936l-47.129-47.128L418.042,450.798z"/>
		<path style="fill:#D4352F;" d="M428.042,440.798l-10,10l21.422,21.422l25.707,25.707c5.688,5.718,14.888,6.019,20.968,0.875    C485.198,498.005,489.307,502.063,428.042,440.798z"/>
	</g>
	<g>
		<path d="M421.987,110.975H214.099c-4.143,0-7.5,3.358-7.5,7.5s3.357,7.5,7.5,7.5h207.889c4.143,0,7.5-3.358,7.5-7.5    S426.13,110.975,421.987,110.975z"/>
		<path d="M421.987,146.227H214.099c-4.143,0-7.5,3.358-7.5,7.5s3.357,7.5,7.5,7.5h207.889c4.143,0,7.5-3.358,7.5-7.5    S426.13,146.227,421.987,146.227z"/>
		<path d="M421.987,181.479H214.099c-4.143,0-7.5,3.358-7.5,7.5s3.357,7.5,7.5,7.5h207.889c4.143,0,7.5-3.358,7.5-7.5    S426.13,181.479,421.987,181.479z"/>
		<path d="M77.918,110.975H44.96c-4.143,0-7.5,3.358-7.5,7.5s3.357,7.5,7.5,7.5h32.958c4.143,0,7.5-3.358,7.5-7.5    S82.061,110.975,77.918,110.975z"/>
		<path d="M77.918,146.227H44.96c-4.143,0-7.5,3.358-7.5,7.5s3.357,7.5,7.5,7.5h32.958c4.143,0,7.5-3.358,7.5-7.5    S82.061,146.227,77.918,146.227z"/>
		<path d="M77.918,181.479H44.96c-4.143,0-7.5,3.358-7.5,7.5s3.357,7.5,7.5,7.5h32.958c4.143,0,7.5-3.358,7.5-7.5    S82.061,181.479,77.918,181.479z"/>
		<path d="M77.918,216.73H44.96c-4.143,0-7.5,3.358-7.5,7.5s3.357,7.5,7.5,7.5h32.958c4.143,0,7.5-3.358,7.5-7.5    S82.061,216.73,77.918,216.73z"/>
		<path d="M77.918,251.982H44.96c-4.143,0-7.5,3.358-7.5,7.5s3.357,7.5,7.5,7.5h32.958c4.143,0,7.5-3.358,7.5-7.5    S82.061,251.982,77.918,251.982z"/>
		<path d="M77.918,287.234H44.96c-4.143,0-7.5,3.358-7.5,7.5s3.357,7.5,7.5,7.5h32.958c4.143,0,7.5-3.358,7.5-7.5    S82.061,287.234,77.918,287.234z"/>
		<path d="M77.918,357.738H44.96c-4.143,0-7.5,3.358-7.5,7.5s3.357,7.5,7.5,7.5h32.958c4.143,0,7.5-3.358,7.5-7.5    S82.061,357.738,77.918,357.738z"/>
		<path d="M77.918,322.486H44.96c-4.143,0-7.5,3.358-7.5,7.5s3.357,7.5,7.5,7.5h32.958c4.143,0,7.5-3.358,7.5-7.5    S82.061,322.486,77.918,322.486z"/>
		<path d="M172.809,110.975h-13.764c-4.143,0-7.5,3.358-7.5,7.5s3.357,7.5,7.5,7.5h13.764c4.143,0,7.5-3.358,7.5-7.5    S176.951,110.975,172.809,110.975z"/>
		<path d="M172.809,181.479h-13.764c-4.143,0-7.5,3.358-7.5,7.5s3.357,7.5,7.5,7.5h13.764c4.143,0,7.5-3.358,7.5-7.5    S176.951,181.479,172.809,181.479z"/>
		<path d="M172.809,251.982h-13.764c-4.143,0-7.5,3.358-7.5,7.5s3.357,7.5,7.5,7.5h13.764c4.143,0,7.5-3.358,7.5-7.5    S176.951,251.982,172.809,251.982z"/>
		<path d="M172.809,322.486h-13.764c-4.143,0-7.5,3.358-7.5,7.5s3.357,7.5,7.5,7.5h13.764c4.143,0,7.5-3.358,7.5-7.5    S176.951,322.486,172.809,322.486z"/>
		<path d="M470.024,422.372c7.23-5.154,11.913-13.603,11.913-22.891V241.616c0-4.142-3.357-7.5-7.5-7.5s-7.5,3.358-7.5,7.5v157.865    c0,5.237-3.197,9.906-7.835,11.969c-1.26-1.26,2.881,2.881-13.853-13.852c-8.994-8.994-23.549-8.994-32.544,0l-1.079,1.079    l-9.648-9.648c4.502-5.141,8.458-10.595,11.863-16.291h8.147c4.143,0,7.5-3.358,7.5-7.5s-3.357-7.5-7.5-7.5h-0.646    c11.9-29.093,11.104-62.198-2.382-90.755h3.029c4.143,0,7.5-3.358,7.5-7.5s-3.357-7.5-7.5-7.5h-11.596    c-5.035-7.416-10.911-14.178-17.611-20.252h29.207c4.143,0,7.5-3.358,7.5-7.5s-3.357-7.5-7.5-7.5h-50.125    c-33.132-18.413-74.691-19.022-108.918,0h-48.845c-4.143,0-7.5,3.358-7.5,7.5s3.357,7.5,7.5,7.5h27.927    c-6.696,6.07-12.573,12.831-17.611,20.252h-11.873c-4.143,0-7.5,3.358-7.5,7.5s3.357,7.5,7.5,7.5h3.306    c-13.491,28.567-14.282,61.687-2.369,90.787c-3.852,0.316-6.88,3.536-6.88,7.469c0,4.142,3.357,7.5,7.5,7.5h6.868    c9.67,16.172,23.572,30.1,40.642,39.858H123.83V71.982h343.106v134.633c0,4.142,3.357,7.5,7.5,7.5s7.5-3.358,7.5-7.5V30.467    c0-15.503-12.612-28.115-28.115-28.115c-14.157,0-411.549,0-425.706,0C12.612,2.352,0,14.964,0,30.467    c0,7.141,0,364.211,0,369.014c0,15.503,12.612,28.115,28.115,28.115c8.809,0,360.967,0,365.14,0    c0.231,5.568,2.441,11.069,6.683,15.311l59.98,59.98c8.972,8.972,23.571,8.972,32.544,0l12.767-12.767    c4.346-4.346,6.739-10.125,6.739-16.271s-2.394-11.925-6.739-16.271L470.024,422.372z M268.426,230.877    c0.194-0.101,0.381-0.212,0.564-0.329c14.574-8.38,31.15-12.847,48.413-12.847c86.404,0,130.016,105.035,68.845,166.206    c-37.961,37.96-99.73,37.96-137.689,0C203.736,339.085,212.961,263.27,268.426,230.877z M391.371,399.636l9.648,9.648    c-1,1-1.984,1.94-3.036,3.312h-24.784C379.575,408.951,385.667,404.631,391.371,399.636z M466.937,30.467v26.515    c-14.345,0-378.319,0-397.306,0v-39.63h384.19C461.053,17.352,466.937,23.235,466.937,30.467z M15,30.467    c0-7.232,5.884-13.115,13.115-13.115h26.516v39.63H15V30.467z M28.115,412.596c-7.231,0-13.115-5.883-13.115-13.115V71.982    c9.969,0,83.91,0,93.83,0v340.614H28.115z M410.546,420.971c1.409-1.409-2.754,2.754,12.767-12.767    c3.131-3.132,8.199-3.131,11.329,0l7.549,7.549l-24.096,24.096l-7.548-7.548C407.323,429.078,407.548,423.969,410.546,420.971z     M481.855,492.281c-3.123,3.124-8.206,3.124-11.329,0l-41.825-41.826l24.096-24.096c4.638,4.638,37.162,37.162,41.825,41.825    c3.092,3.092,3.154,8.175,0,11.33L481.855,492.281z"/>
		<path d="M374.723,257.742c-10.32-10.32-23.231-17.665-37.337-21.24c-4.012-1.018-8.096,1.412-9.113,5.427    c-1.018,4.016,1.413,8.095,5.428,9.113c11.488,2.912,22.006,8.896,30.416,17.306c41.483,41.483,11.983,112.749-46.713,112.744    c-58.691-0.007-88.206-71.251-46.714-112.744c8.705-8.704,19.62-14.785,31.565-17.586c4.033-0.945,6.535-4.981,5.59-9.014    c-0.945-4.033-4.987-6.534-9.014-5.59c-14.668,3.438-28.066,10.902-38.748,21.583c-50.904,50.906-14.702,138.343,57.32,138.343    C389.395,396.085,425.65,308.67,374.723,257.742z"/>
	</g>
</g>















</svg>
